<svg xmlns="http://www.w3.org/2000/svg" xmlns:xlink="http://www.w3.org/1999/xlink" width="150" zoomAndPan="magnify" viewBox="0 0 112.5 37.5" height="50" preserveAspectRatio="xMidYMid meet" version="1.0"><defs><g/></defs><g fill="#ffffff" fill-opacity="1"><g transform="translate(1.036219, 25.648024)"><g><path d="M 2.171875 -22.515625 C 2.753906 -23.097656 3.445312 -23.390625 4.25 -23.390625 C 5.0625 -23.390625 5.757812 -23.097656 6.34375 -22.515625 C 6.925781 -21.929688 7.21875 -21.234375 7.21875 -20.421875 C 7.21875 -19.617188 6.925781 -18.925781 6.34375 -18.34375 C 5.757812 -17.757812 5.0625 -17.46875 4.25 -17.46875 C 3.445312 -17.46875 2.753906 -17.757812 2.171875 -18.34375 C 1.585938 -18.925781 1.296875 -19.617188 1.296875 -20.421875 C 1.296875 -21.234375 1.585938 -21.929688 2.171875 -22.515625 Z M 1.6875 -14.453125 L 1.6875 0 L 6.6875 0 L 6.6875 -14.453125 Z M 1.6875 -14.453125 "/></g></g></g><g fill="#ffffff" fill-opacity="1"><g transform="translate(8.982784, 25.648024)"><g><path d="M 1.6875 0 L 1.6875 -14.453125 L 6.6875 -14.453125 L 6.6875 -12.9375 L 6.734375 -12.9375 C 8.035156 -14.238281 9.414062 -14.890625 10.875 -14.890625 C 11.59375 -14.890625 12.300781 -14.789062 13 -14.59375 C 13.707031 -14.40625 14.382812 -14.113281 15.03125 -13.71875 C 15.6875 -13.332031 16.210938 -12.773438 16.609375 -12.046875 C 17.015625 -11.328125 17.21875 -10.488281 17.21875 -9.53125 L 17.21875 0 L 12.234375 0 L 12.234375 -8.171875 C 12.234375 -8.921875 11.992188 -9.578125 11.515625 -10.140625 C 11.035156 -10.710938 10.410156 -11 9.640625 -11 C 8.890625 -11 8.207031 -10.707031 7.59375 -10.125 C 6.988281 -9.539062 6.6875 -8.890625 6.6875 -8.171875 L 6.6875 0 Z M 1.6875 0 "/></g></g></g><g fill="#ffffff" fill-opacity="1"><g transform="translate(27.04606, 25.648024)"><g><path d="M 1.046875 3.546875 L 5.125 1.546875 C 5.875 2.785156 7.179688 3.40625 9.046875 3.40625 C 9.910156 3.40625 10.710938 3.128906 11.453125 2.578125 C 12.203125 2.023438 12.578125 1.175781 12.578125 0.03125 L 12.578125 -1.046875 C 11.691406 -0.0664062 10.113281 0.421875 7.84375 0.421875 C 5.75 0.421875 4.023438 -0.3125 2.671875 -1.78125 C 1.316406 -3.257812 0.640625 -5.066406 0.640625 -7.203125 C 0.640625 -9.347656 1.316406 -11.164062 2.671875 -12.65625 C 4.023438 -14.144531 5.75 -14.890625 7.84375 -14.890625 C 9.695312 -14.890625 11.242188 -14.3125 12.484375 -13.15625 L 12.578125 -13.15625 L 12.578125 -14.453125 L 17.5625 -14.453125 L 17.5625 0.390625 C 17.5625 2.742188 16.78125 4.554688 15.21875 5.828125 C 13.65625 7.109375 11.597656 7.75 9.046875 7.75 C 4.910156 7.75 2.242188 6.347656 1.046875 3.546875 Z M 6.921875 -9.65625 C 6.273438 -9.019531 5.953125 -8.203125 5.953125 -7.203125 C 5.953125 -6.210938 6.257812 -5.398438 6.875 -4.765625 C 7.5 -4.140625 8.316406 -3.828125 9.328125 -3.828125 C 10.304688 -3.828125 11.109375 -4.144531 11.734375 -4.78125 C 12.367188 -5.425781 12.6875 -6.238281 12.6875 -7.21875 C 12.6875 -8.207031 12.359375 -9.019531 11.703125 -9.65625 C 11.054688 -10.300781 10.265625 -10.625 9.328125 -10.625 C 8.367188 -10.625 7.566406 -10.300781 6.921875 -9.65625 Z M 6.921875 -9.65625 "/></g></g></g><g fill="#ffffff" fill-opacity="1"><g transform="translate(45.729291, 25.648024)"><g><path d="M 1.6875 0 L 1.6875 -14.453125 L 6.6875 -14.453125 L 6.6875 -12.375 L 6.734375 -12.375 C 6.773438 -12.445312 6.835938 -12.539062 6.921875 -12.65625 C 7.003906 -12.769531 7.1875 -12.96875 7.46875 -13.25 C 7.75 -13.53125 8.046875 -13.78125 8.359375 -14 C 8.679688 -14.226562 9.097656 -14.429688 9.609375 -14.609375 C 10.117188 -14.796875 10.632812 -14.890625 11.15625 -14.890625 C 11.707031 -14.890625 12.242188 -14.8125 12.765625 -14.65625 C 13.296875 -14.507812 13.679688 -14.359375 13.921875 -14.203125 L 14.3125 -13.984375 L 12.234375 -9.75 C 11.609375 -10.28125 10.742188 -10.546875 9.640625 -10.546875 C 9.035156 -10.546875 8.515625 -10.410156 8.078125 -10.140625 C 7.648438 -9.878906 7.347656 -9.5625 7.171875 -9.1875 C 6.992188 -8.8125 6.867188 -8.492188 6.796875 -8.234375 C 6.722656 -7.972656 6.6875 -7.765625 6.6875 -7.609375 L 6.6875 0 Z M 1.6875 0 "/></g></g></g><g fill="#ffffff" fill-opacity="1"><g transform="translate(59.199185, 25.648024)"><g><path d="M 16.328125 -6.546875 L 5.828125 -6.546875 C 5.828125 -5.523438 6.15625 -4.769531 6.8125 -4.28125 C 7.476562 -3.789062 8.195312 -3.546875 8.96875 -3.546875 C 9.769531 -3.546875 10.40625 -3.65625 10.875 -3.875 C 11.34375 -4.09375 11.878906 -4.519531 12.484375 -5.15625 L 16.09375 -3.359375 C 14.59375 -0.835938 12.09375 0.421875 8.59375 0.421875 C 6.414062 0.421875 4.546875 -0.320312 2.984375 -1.8125 C 1.421875 -3.3125 0.640625 -5.113281 0.640625 -7.21875 C 0.640625 -9.320312 1.421875 -11.125 2.984375 -12.625 C 4.546875 -14.132812 6.414062 -14.890625 8.59375 -14.890625 C 10.882812 -14.890625 12.75 -14.222656 14.1875 -12.890625 C 15.625 -11.566406 16.34375 -9.675781 16.34375 -7.21875 C 16.34375 -6.875 16.335938 -6.648438 16.328125 -6.546875 Z M 5.96875 -9.296875 L 11.46875 -9.296875 C 11.351562 -10.046875 11.054688 -10.625 10.578125 -11.03125 C 10.097656 -11.4375 9.484375 -11.640625 8.734375 -11.640625 C 7.910156 -11.640625 7.253906 -11.421875 6.765625 -10.984375 C 6.273438 -10.554688 6.007812 -9.992188 5.96875 -9.296875 Z M 5.96875 -9.296875 "/></g></g></g><g fill="#ffffff" fill-opacity="1"><g transform="translate(75.628006, 25.648024)"><g><path d="M 5.359375 -14.453125 L 8.875 -6.59375 L 12.40625 -14.453125 L 18.328125 -14.453125 L 10.578125 0 L 7.1875 0 L -0.5625 -14.453125 Z M 5.359375 -14.453125 "/></g></g></g><g fill="#ffffff" fill-opacity="1"><g transform="translate(92.817694, 25.648024)"><g><path d="M 3.046875 -1.71875 C 1.441406 -3.144531 0.640625 -4.976562 0.640625 -7.21875 C 0.640625 -9.457031 1.476562 -11.296875 3.15625 -12.734375 C 4.832031 -14.171875 6.898438 -14.890625 9.359375 -14.890625 C 11.785156 -14.890625 13.828125 -14.164062 15.484375 -12.71875 C 17.148438 -11.269531 17.984375 -9.4375 17.984375 -7.21875 C 17.984375 -5 17.171875 -3.171875 15.546875 -1.734375 C 13.921875 -0.296875 11.859375 0.421875 9.359375 0.421875 C 6.765625 0.421875 4.660156 -0.289062 3.046875 -1.71875 Z M 6.921875 -9.65625 C 6.273438 -9.019531 5.953125 -8.203125 5.953125 -7.203125 C 5.953125 -6.210938 6.257812 -5.398438 6.875 -4.765625 C 7.5 -4.140625 8.316406 -3.828125 9.328125 -3.828125 C 10.304688 -3.828125 11.109375 -4.144531 11.734375 -4.78125 C 12.367188 -5.425781 12.6875 -6.238281 12.6875 -7.21875 C 12.6875 -8.207031 12.359375 -9.019531 11.703125 -9.65625 C 11.054688 -10.300781 10.265625 -10.625 9.328125 -10.625 C 8.367188 -10.625 7.566406 -10.300781 6.921875 -9.65625 Z M 6.921875 -9.65625 "/></g></g></g></svg>